<svg xmlns="http://www.w3.org/2000/svg" data-name="setting 1" viewBox="0 0 47.99998 48" x="0px" y="0px"><path d="M42.1847,15.43164a4.74643,4.74643,0,0,0-4.1709-1.417V12.0957a4.08606,4.08606,0,0,0-4.08106-4.08105H20.0138a4.09214,4.09214,0,0,0-4.08008-4H14.09485a4.08606,4.08606,0,0,0-4.081,4.08105v5.91895H8.92005a4.1357,4.1357,0,0,0-4.06831,4.69828l3.249,21.82223a4.10587,4.10587,0,0,0,4.03711,3.47949H35.86243a4.10486,4.10486,0,0,0,4.03613-3.47949l3.251-21.82813A4.11331,4.11331,0,0,0,42.1847,15.43164ZM12.0138,8.0957a2.08345,2.08345,0,0,1,2.081-2.08105h1.83887A2.08436,2.08436,0,0,1,18.0138,8.08594v.92871a.99942.99942,0,0,0,1,1H33.93274A2.08346,2.08346,0,0,1,36.0138,12.0957v1.91895h-24ZM41.17005,18.418l-3.25,21.82226a2.09277,2.09277,0,0,1-2.05762,1.77442H12.13782a2.093,2.093,0,0,1-2.05859-1.77442L6.83118,18.42383a2.11046,2.11046,0,0,1,2.08887-2.40918H39.07923A2.1252,2.1252,0,0,1,41.17005,18.418Zm-8.01758,6.48535c-.53311-.80125-1.11719-2.48509-2.21386-2.66988-.99889-.37463-2.22213.65382-3.04493,1.07711a6.674,6.674,0,0,0-.87793-.50977V21.0293a2.0026,2.0026,0,0,0-2-2h-2a2.0026,2.0026,0,0,0-2,2V22.79a6.4956,6.4956,0,0,0-.88672.51172c-.83107-.424-2.04852-1.46047-3.05564-1.08882-1.09162.17726-1.68611,1.86744-2.21295,2.66112a2.00044,2.00044,0,0,0,.72855,2.73141l1.52637.88476a7.20226,7.20226,0,0,0-.00293,1.01563l-1.53418.88867a2.00105,2.00105,0,0,0-.73047,2.72852l1.00195,1.74023a2.00692,2.00692,0,0,0,2.73047.73438l1.5293-.87989a6.776,6.776,0,0,0,.876.50586V37a2.0026,2.0026,0,0,0,2,2h2a2.0026,2.0026,0,0,0,2-2V35.24121a6.41629,6.41629,0,0,0,.88964-.51074l1.53418.88476a2.00327,2.00327,0,0,0,2.73243-.73046c.42513-.85984,1.59064-2.208,1.1982-3.248-.17771-1.05194-1.6763-1.58937-2.45406-2.08891a6.9535,6.9535,0,0,0,.001-1.02832l1.53418-.88476A2.00433,2.00433,0,0,0,33.15247,24.90332Zm-3.84668,2.21973c-.74507.41314-.39985,1.19918-.40034,1.89649.008.70566-.35443,1.50825.40137,1.92674l2.10053,1.21095-.99707,1.72656-2.11523-1.2207a.9989.9989,0,0,0-1.15625.11132,4.42128,4.42128,0,0,1-1.47754.84864,1,1,0,0,0-.67578.94629V37h-2V34.55957a1,1,0,0,0-.66211-.94141c-.81622-.1742-1.33407-1.00276-2.13764-1.09876-.38318-.07637-2.25306,1.19542-2.60357,1.34486L16.5802,32.125l2.10645-1.21973c.73407-.40114.40666-1.2112.40912-1.88575-.008-.71224.35542-1.50142-.39941-1.92479L16.59192,25.875l.999-1.72949,2.11425,1.2207a.99958.99958,0,0,0,1.14746-.10351A4.59575,4.59575,0,0,1,22.34,24.40625a1,1,0,0,0,.67578-.94629V21.0293h2v2.44043a1.00006,1.00006,0,0,0,.67578.94629c.9016.13984,1.63882,1.49928,2.623.96l2.10354-1.21,1.002,1.7373Zm-5.30371-1.1377a3.10078,3.10078,0,0,0,.00009,6.20117A3.10078,3.10078,0,0,0,24.00208,25.98535Zm0,4.20117a1.1007,1.1007,0,0,1,.00005-2.20117A1.1007,1.1007,0,0,1,24.00208,30.18652Z"></path></svg>