<svg height='100px' width='100px'  fill="#000000" xmlns="http://www.w3.org/2000/svg" data-name="Layer 2" viewBox="0 0 64 64" x="0px" y="0px"><title>02, Curiosity Rover, Robot, Exploration, martian, mars, space, Perseverance,</title><path d="M38,15a3,3,0,1,0-3-3A3.0033,3.0033,0,0,0,38,15Zm0-4a1,1,0,1,1-1,1A1.0013,1.0013,0,0,1,38,11Z"></path><path d="M11.4,37.8a1.0006,1.0006,0,0,0,.6.2H23.9362l-1.298,1.36A3.9633,3.9633,0,0,0,21,39a4.0045,4.0045,0,0,0-4,4,3.9487,3.9487,0,0,0,.4467,1.798l-2.7786,2.9109a6.5021,6.5021,0,0,0-1.056-.5945l.1652-.6173a1,1,0,0,0-1.9316-.5176l-.1655.6184a6.3756,6.3756,0,0,0-1.36.0012l-.1658-.62a1,1,0,1,0-1.9316.5176l.1658.62a6.3879,6.3879,0,0,0-1.1784.6792l-.4528-.4528a1,1,0,0,0-1.414,1.414l.4519.452a6.4978,6.4978,0,0,0-.6806,1.1787l-.6175-.1653A1,1,0,0,0,3.98,52.1543l.6188.1656a6.3866,6.3866,0,0,0,.0009,1.36l-.62.1659a1,1,0,0,0,.2583,1.9663,4.0212,4.0212,0,0,0,.8782-.2,6.3578,6.3578,0,0,0,.6847,1.1735l-.4574.4575a1,1,0,0,0,1.414,1.414l.456-.456a6.4845,6.4845,0,0,0,1.1793.6676l-.17.6346a1,1,0,0,0,1.9316.5176l.1691-.6315a6.3193,6.3193,0,0,0,.6781.0563,6.4,6.4,0,0,0,.6784-.0444l.1658.62a1,1,0,1,0,1.9316-.5176l-.1658-.62a6.3822,6.3822,0,0,0,1.1784-.6792l.4528.4528a1,1,0,0,0,1.414-1.414l-.4519-.452a6.4978,6.4978,0,0,0,.6806-1.1787,4.06,4.06,0,0,0,.8768.2,1,1,0,0,0,.2583-1.9663l-.6188-.1656a6.3866,6.3866,0,0,0-.0009-1.36l.62-.1659a1,1,0,1,0-.5176-1.9316l-.62.1658a6.3938,6.3938,0,0,0-.7659-1.3018l2.6461-2.7721a3.9319,3.9319,0,0,0,4.2215.1371l2.7959,2.7757a6.5021,6.5021,0,0,0-.6663,1.1606l-.6175-.1653a1,1,0,1,0-.5176,1.9316l.6188.1656a6.3866,6.3866,0,0,0,.0009,1.36l-.62.1659a1,1,0,0,0,.2583,1.9663,4.0212,4.0212,0,0,0,.8782-.2,6.3578,6.3578,0,0,0,.6847,1.1735l-.4574.4575a1,1,0,0,0,1.414,1.414l.456-.456a6.4845,6.4845,0,0,0,1.1793.6676l-.17.6346a1,1,0,0,0,1.9316.5176l.1691-.6315a6.3193,6.3193,0,0,0,.6781.0563,6.4,6.4,0,0,0,.6784-.0444l.1658.62a1,1,0,0,0,1.9316-.5176l-.1658-.62a6.3822,6.3822,0,0,0,1.1784-.6792l.4528.4528a1,1,0,0,0,1.414-1.414l-.4519-.452a6.4978,6.4978,0,0,0,.6806-1.1787,4.06,4.06,0,0,0,.8768.2,1,1,0,0,0,.2583-1.9663l-.6188-.1656a6.3866,6.3866,0,0,0-.0009-1.36l.62-.1659a1,1,0,0,0-.5176-1.9316l-.62.1658a6.3854,6.3854,0,0,0-.679-1.1786l.4525-.4526a1,1,0,0,0-1.414-1.414l-.4516.4515a6.494,6.494,0,0,0-1.1789-.6807l.1651-.617a1,1,0,0,0-1.9316-.5176l-.1655.6183a6.3812,6.3812,0,0,0-1.36.0013l-.1659-.62a1,1,0,0,0-1.9316.5176l.1658.62a6.3856,6.3856,0,0,0-1.1974.6926l-2.7764-2.7563a3.9112,3.9112,0,0,0-.2169-4.4312L26.7005,38H37.3l10.588,11.0919a6.4877,6.4877,0,0,0-.773,1.2961l-.6175-.1653a1,1,0,1,0-.5176,1.9316l.6188.1656a6.3866,6.3866,0,0,0,.0009,1.36l-.62.1659a1,1,0,0,0,.2583,1.9663,4.0212,4.0212,0,0,0,.8782-.2,6.3578,6.3578,0,0,0,.6847,1.1735l-.4574.4575a1,1,0,0,0,1.414,1.414l.456-.456a6.4845,6.4845,0,0,0,1.1793.6676l-.17.6346a1,1,0,1,0,1.9316.5176l.1691-.6315a4.5788,4.5788,0,0,0,1.3565.0119l.1658.62a1,1,0,1,0,1.9316-.5176l-.1658-.62a6.3822,6.3822,0,0,0,1.1784-.6792l.4528.4528a1,1,0,0,0,1.414-1.414l-.4519-.452a6.4978,6.4978,0,0,0,.6806-1.1787,4.06,4.06,0,0,0,.8768.2,1,1,0,0,0,.2583-1.9663l-.6188-.1656a6.3866,6.3866,0,0,0-.0009-1.36l.62-.1659a1,1,0,0,0-.5176-1.9316l-.62.1658a6.3854,6.3854,0,0,0-.679-1.1786l.4525-.4526a1,1,0,0,0-1.414-1.414l-.4516.4515a6.494,6.494,0,0,0-1.1789-.6807l.1651-.617a1,1,0,0,0-1.9316-.5176l-.1655.6183a6.3812,6.3812,0,0,0-1.36.0013l-.1659-.62a1,1,0,0,0-1.9316.5176l.1658.62a6.3838,6.3838,0,0,0-1.0557.5929L40.0641,38H60a1,1,0,0,0,1-1V25a1,1,0,0,0-1-1H42V19h3a1,1,0,0,0,1-1V6a1,1,0,0,0-1-1H31a1,1,0,0,0-1,1V18a1,1,0,0,0,1,1h3v5H17V15a1,1,0,0,0-1-1H4a1,1,0,0,0-1,1V31a1,1,0,0,0,.4.8ZM6.707,54.15A4.4445,4.4445,0,1,1,12.15,57.293,4.4177,4.4177,0,0,1,6.707,54.15ZM19,43a2,2,0,1,1,2,2A2.002,2.002,0,0,1,19,43Zm14.2222,6.1509A4.4446,4.4446,0,1,1,29.85,48.707,4.4428,4.4428,0,0,1,33.2222,49.1509ZM57.293,51.85A4.4445,4.4445,0,1,1,51.85,48.707,4.4424,4.4424,0,0,1,57.293,51.85ZM28.61,36l1.4531-1.5224a3.8539,3.8539,0,0,0,3.8747,0L35.3905,36ZM32,33a2,2,0,1,1,2-2A2.002,2.002,0,0,1,32,33Zm27,3H38.1549l-2.7666-2.8983A3.9612,3.9612,0,0,0,36,31a4,4,0,0,0-8,0,3.962,3.962,0,0,0,.6117,2.1016L25.8452,36H12.334L5,30.5V26H59ZM32,7H44V17H32Zm4,12h4v5H36ZM5,16H15v8H5Z"></path><path d="M53.2588,53.9659a1,1,0,1,0-1.2247-.7071A1,1,0,0,0,53.2588,53.9659Z"></path><path d="M31.2588,53.9659a1,1,0,1,0-1.2247-.7071A1,1,0,0,0,31.2588,53.9659Z"></path><path d="M10.7412,52.0341a1,1,0,1,0,1.2247.707A1,1,0,0,0,10.7412,52.0341Z"></path><path d="M50,30h6a1,1,0,0,0,0-2H50a1,1,0,0,0,0,2Z"></path></svg>